{"asset":{"version":"2.0","generator":"GLTFExporter"},"scenes":[{"nodes":[7],"name":"AuxScene"}],"scene":0,"nodes":[{"mesh":0},{"matrix":[1,0,0,0,0,1,0,0,0,0,1,0,-16.317278845853878,167.1720116032426,0,1],"children":[0]},{"matrix":[1,0,0,0,0,1,0,0,0,0,1,0,0,0,0.3,1],"children":[1]},{"matrix":[1,0,0,0,0,1,0,0,0,0,1,0,0,0,-100,1],"mesh":1},{"matrix":[1,0,0,0,0,1,0,0,0,0,1,0,-24.96603185146183,-23.719941721757536,0,1],"children":[2,3]},{"children":[4]},{"children":[5]},{"children":[6]}],"bufferViews":[{"buffer":0,"byteOffset":0,"byteLength":720,"target":34962,"byteStride":12},{"buffer":0,"byteOffset":720,"byteLength":480,"target":34962,"byteStride":8},{"buffer":0,"byteOffset":1200,"byteLength":720,"target":34962,"byteStride":12},{"buffer":0,"byteOffset":1920,"byteLength":1584,"target":34962,"byteStride":12},{"buffer":0,"byteOffset":3504,"byteLength":1056,"target":34962,"byteStride":8},{"buffer":0,"byteOffset":4560,"byteLength":1584,"target":34962,"byteStride":12}],"buffers":[{"byteLength":6144,"uri":"data:application/octet-stream;base64,"}],"accessors":[{"bufferView":0,"componentType":5126,"count":60,"max":[121.69689178466797,105.90773010253906,3.700000047683716],"min":[-103.39936828613281,-112.0920639038086,0],"type":"VEC3"},{"bufferView":1,"componentType":5126,"count":60,"max":[121.69689178466797,105.90773010253906],"min":[-112.0920639038086,-112.0920639038086],"type":"VEC2"},{"bufferView":2,"componentType":5126,"count":60,"max":[0.90520179271698,0.9052181243896484,1],"min":[-0.9405975937843323,-0.9051701426506042,-1],"type":"VEC3"},{"bufferView":3,"componentType":5126,"count":132,"max":[105.85260772705078,273.772705078125,0.30000001192092896],"min":[-120.21903991699219,54.38703155517578,0],"type":"VEC3"},{"bufferView":4,"componentType":5126,"count":132,"max":[273.772705078125,273.772705078125],"min":[-120.21903991699219,0.699999988079071],"type":"VEC2"},{"bufferView":5,"componentType":5126,"count":132,"max":[0.9665806889533997,0.9982388019561768,1],"min":[-0.999126136302948,-0.9075201153755188,-1],"type":"VEC3"}],"materials":[{"pbrMetallicRoughness":{"baseColorFactor":[1,1,1,0.1],"metallicFactor":0.5,"roughnessFactor":0.5},"alphaMode":"BLEND"},{"pbrMetallicRoughness":{"baseColorFactor":[0.9333333333333333,0.9333333333333333,0.9333333333333333,1],"metallicFactor":0.5,"roughnessFactor":0.5},"alphaMode":"BLEND"}],"meshes":[{"primitives":[{"mode":4,"attributes":{"POSITION":0,"TEXCOORD_0":1,"NORMAL":2},"material":0}]},{"primitives":[{"mode":4,"attributes":{"POSITION":3,"TEXCOORD_0":4,"NORMAL":5},"material":1}]}]}